<svg id="visual" viewBox="0 0 900 600" width="900" height="600" xmlns="http://www.w3.org/2000/svg" xmlns:xlink="http://www.w3.org/1999/xlink" version="1.1"><g transform="translate(929.9291808405263 -71.10838353169694)"><path d="M200 -263.3C259 -232.5 306.4 -173.7 354.3 -98.1C402.3 -22.6 450.8 69.8 422.6 131.3C394.4 192.8 289.5 223.4 206.3 296.4C123 369.4 61.5 484.7 -2.3 487.8C-66 490.9 -132.1 381.8 -207.5 306.3C-283 230.8 -367.8 188.9 -424.1 114.5C-480.3 40.1 -507.9 -67 -479.5 -156.3C-451.2 -245.7 -367 -317.4 -277.7 -338.4C-188.5 -359.4 -94.2 -329.7 -11.9 -313.4C70.5 -297.1 141.1 -294.2 200 -263.3" fill="#193cb8"></path></g></svg>