<?xml version="1.0" standalone="no"?>
<!DOCTYPE svg PUBLIC "-//W3C//DTD SVG 20010904//EN"
 "http://www.w3.org/TR/2001/REC-SVG-20010904/DTD/svg10.dtd">
<svg version="1.0" xmlns="http://www.w3.org/2000/svg"
 width="200.000000pt" height="200.000000pt" viewBox="0 0 200.000000 200.000000"
 preserveAspectRatio="xMidYMid meet">
<metadata>
Created by potrace 1.10, written by Peter Selinger 2001-2011
</metadata>
<g transform="translate(0.000000,200.000000) scale(0.050000,-0.050000)"
fill="#000000" stroke="none">
<path d="M1882 3187 c-133 -93 -139 -436 -8 -552 61 -55 130 74 79 147 -88
125 14 380 107 268 66 -79 8 -327 -109 -466 l-56 -65 -98 92 c-185 173 -355
214 -459 111 -219 -220 236 -593 515 -423 127 77 169 23 94 -123 -46 -92 -36
-116 49 -116 75 0 77 2 102 101 l26 101 104 -13 c334 -41 628 278 434 473
-133 133 -385 16 -564 -260 -18 -29 -40 -43 -54 -34 -17 10 -10 33 25 78 273
359 125 900 -187 681z m-310 -583 c93 -50 212 -162 198 -184 -21 -35 -177 -22
-245 20 -163 99 -117 254 47 164z m999 15 c48 -79 -100 -210 -261 -232 -109
-15 -114 4 -25 106 109 124 249 186 286 126z"/>
<path d="M2271 1862 c-7 -11 -6 -43 1 -71 12 -48 8 -51 -68 -51 -194 0 -232
-309 -44 -350 69 -15 200 22 201 57 14 360 9 423 -34 429 -24 4 -49 -3 -56
-14z m5 -294 c7 -92 -29 -124 -97 -87 -78 41 -36 187 51 175 31 -5 41 -24 46
-88z"/>
<path d="M2460 1820 c0 -29 13 -40 50 -40 37 0 50 11 50 40 0 29 -13 40 -50
40 -37 0 -50 -11 -50 -40z"/>
<path d="M624 1796 c5 -36 19 -46 66 -46 l60 0 -2 -175 -2 -175 57 0 57 0 0
180 0 180 71 0 c58 0 71 7 65 35 -12 62 -381 63 -372 1z"/>
<path d="M1045 1716 c-41 -20 -45 -37 -45 -169 l0 -147 58 0 59 0 -4 125 -3
125 66 6 c50 5 65 15 60 40 -8 41 -124 53 -191 20z"/>
<path d="M1325 1709 c-96 -67 -73 -264 36 -310 85 -34 199 -9 199 44 0 36 -9
40 -62 30 -63 -13 -138 13 -138 48 0 10 50 19 110 19 102 0 110 3 110 47 0
124 -150 196 -255 122z m150 -84 c5 -16 -13 -25 -53 -25 -60 0 -78 18 -48 48
22 21 92 5 101 -23z"/>
<path d="M1693 1723 c-31 -13 -38 -41 -43 -169 l-5 -154 57 0 58 0 -5 124 c-4
106 0 126 31 132 71 14 100 -36 86 -150 l-12 -106 59 0 59 0 -12 145 c-14 186
-104 244 -273 178z"/>
<path d="M2684 1699 c-109 -102 -37 -309 107 -305 76 2 90 -21 30 -53 -26 -14
-55 -15 -91 -1 -70 27 -70 27 -70 -28 0 -87 210 -92 270 -5 47 66 41 356 -7
400 -52 47 -185 43 -239 -8z m176 -139 c0 -94 -3 -100 -50 -100 -68 0 -106 79
-74 150 46 100 124 68 124 -50z"/>
<path d="M3060 1685 c-99 -125 -22 -295 132 -295 117 0 168 55 168 181 0 165
-200 241 -300 114z m190 -113 c0 -91 -47 -136 -98 -93 -32 26 -44 142 -18 169
47 46 116 1 116 -76z"/>
<path d="M2460 1560 c0 -157 1 -160 50 -160 49 0 50 3 50 160 0 157 -1 160
-50 160 -49 0 -50 -3 -50 -160z"/>
</g>
</svg>
