<svg id="visual" viewBox="0 0 900 600" width="900" height="600" xmlns="http://www.w3.org/2000/svg" xmlns:xlink="http://www.w3.org/1999/xlink" version="1.1"><rect width="900" height="600" fill="#ffffff"></rect><g><g transform="translate(303 336)"><path d="M79.3 -30.4C88.7 3.3 72.7 40.6 42.4 63.9C12 87.3 -32.5 96.7 -60.4 77.7C-88.3 58.8 -99.4 11.4 -86.6 -26.9C-73.7 -65.3 -36.9 -94.6 -1 -94.3C34.9 -94 69.9 -64 79.3 -30.4Z" stroke="#1447E6" fill="none" stroke-width="10"></path></g><g transform="translate(756 314)"><path d="M51.2 -16.5C59 7.5 53 36.1 36.2 47.8C19.4 59.6 -8.2 54.4 -27.7 39.9C-47.2 25.3 -58.6 1.3 -52.7 -20.2C-46.7 -41.6 -23.3 -60.4 -0.8 -60.1C21.7 -59.8 43.3 -40.5 51.2 -16.5Z" stroke="#1447E6" fill="none" stroke-width="10"></path></g></g></svg>